<svg width="440" height="413" viewBox="0 0 440 413" fill="none" xmlns="http://www.w3.org/2000/svg">
<path d="M27.4719 54.9437C42.6442 54.9437 54.9438 42.6442 54.9438 27.4719C54.9438 12.2996 42.6442 0 27.4719 0C12.2996 0 0 12.2996 0 27.4719C0 42.6442 12.2996 54.9437 27.4719 54.9437Z" fill="url(#paint0_linear_77_898)"/>
<path d="M209.427 412.078H165.289C137.359 412.078 114.649 389.46 114.649 361.438V270.323C114.649 242.393 137.268 219.683 165.289 219.683H244.317C256.038 219.683 265.562 210.16 265.562 198.438V158.604C265.562 146.883 256.038 137.359 244.317 137.359H67.0314C55.3101 137.359 45.7865 146.883 45.7865 158.604V238.09C45.7865 250.727 35.5303 260.983 22.8932 260.983C10.2562 260.983 0 250.727 0 238.09V142.213C0 114.283 22.6185 91.5729 50.6398 91.5729H260.8C288.729 91.5729 311.44 114.191 311.44 142.213V215.013C311.44 242.943 288.821 265.653 260.8 265.653H181.772C170.051 265.653 160.527 275.177 160.527 286.898V345.047C160.527 356.768 170.051 366.292 181.772 366.292H209.427C222.064 366.292 232.321 376.548 232.321 389.185C232.321 401.822 222.064 412.078 209.427 412.078Z" fill="url(#paint1_linear_77_898)"/>
<path d="M182.584 27.4719C182.584 42.368 170.509 54.4437 155.613 54.4437C140.716 54.4437 128.641 42.368 128.641 27.4719C128.641 12.5757 140.716 0.5 155.613 0.5C170.509 0.5 182.584 12.5757 182.584 27.4719ZM337.568 411.578H293.43C265.776 411.578 243.29 389.183 243.29 361.438V270.323C243.29 242.669 265.685 220.183 293.43 220.183H372.457C384.455 220.183 394.202 210.436 394.202 198.438V158.604C394.202 146.607 384.455 136.859 372.457 136.859H195.172C183.175 136.859 173.427 146.607 173.427 158.604V238.09C173.427 250.45 163.395 260.483 151.034 260.483C138.673 260.483 128.641 250.45 128.641 238.09V142.213C128.641 114.559 151.036 92.0729 178.78 92.0729H388.94C416.595 92.0729 439.08 114.468 439.08 142.213V215.013C439.08 242.667 416.685 265.153 388.94 265.153H309.913C297.915 265.153 288.168 274.9 288.168 286.898V345.047C288.168 357.044 297.915 366.792 309.913 366.792H337.568C349.929 366.792 359.961 376.824 359.961 389.185C359.961 401.546 349.929 411.578 337.568 411.578Z" stroke="black"/>
<defs>
<linearGradient id="paint0_linear_77_898" x1="155.623" y1="-26.1831" x2="155.72" y2="412.078" gradientUnits="userSpaceOnUse">
<stop stop-color="#D644D5"/>
<stop offset="1" stop-color="#8B1FC3"/>
</linearGradient>
<linearGradient id="paint1_linear_77_898" x1="155.623" y1="-26.1831" x2="155.72" y2="412.078" gradientUnits="userSpaceOnUse">
<stop stop-color="#D644D5"/>
<stop offset="1" stop-color="#8B1FC3"/>
</linearGradient>
</defs>
</svg>
