<svg width="440" height="413" viewBox="0 0 440 413" fill="none" xmlns="http://www.w3.org/2000/svg">
<path d="M27.4719 54.9437C42.6442 54.9437 54.9438 42.6442 54.9438 27.4719C54.9438 12.2996 42.6442 0 27.4719 0C12.2996 0 0 12.2996 0 27.4719C0 42.6442 12.2996 54.9437 27.4719 54.9437Z" fill="url(#paint0_linear_77_898)"/>
<path d="M209.427 412.078H165.289C137.359 412.078 114.649 389.46 114.649 361.438V270.323C114.649 242.393 137.268 219.683 165.289 219.683H244.317C256.038 219.683 265.562 210.16 265.562 198.438V158.604C265.562 146.883 256.038 137.359 244.317 137.359H67.0314C55.3101 137.359 45.7865 146.883 45.7865 158.604V238.09C45.7865 250.727 35.5303 260.983 22.8932 260.983C10.2562 260.983 0 250.727 0 238.09V142.213C0 114.283 22.6185 91.5729 50.6398 91.5729H260.8C288.729 91.5729 311.44 114.191 311.44 142.213V215.013C311.44 242.943 288.821 265.653 260.8 265.653H181.772C170.051 265.653 160.527 275.177 160.527 286.898V345.047C160.527 356.768 170.051 366.292 181.772 366.292H209.427C222.064 366.292 232.321 376.548 232.321 389.185C232.321 401.822 222.064 412.078 209.427 412.078Z" fill="url(#paint1_linear_77_898)"/>
<path d="M180.584 27.4719C180.584 41.2635 169.404 52.4437 155.613 52.4437C141.821 52.4437 130.641 41.2635 130.641 27.4719C130.641 13.6803 141.821 2.5 155.613 2.5C169.404 2.5 180.584 13.6803 180.584 27.4719ZM337.568 409.578H293.43C266.878 409.578 245.29 388.076 245.29 361.438V270.323C245.29 243.771 266.792 222.183 293.43 222.183H372.457C385.559 222.183 396.202 211.541 396.202 198.438V158.604C396.202 145.502 385.559 134.859 372.457 134.859H195.172C182.07 134.859 171.427 145.502 171.427 158.604V238.09C171.427 249.346 162.29 258.483 151.034 258.483C139.778 258.483 130.641 249.346 130.641 238.09V142.213C130.641 115.661 152.143 94.0729 178.78 94.0729H388.94C415.492 94.0729 437.08 115.575 437.08 142.213V215.013C437.08 241.565 415.578 263.153 388.94 263.153H309.913C296.811 263.153 286.168 273.796 286.168 286.898V345.047C286.168 358.149 296.811 368.792 309.913 368.792H337.568C348.824 368.792 357.961 377.929 357.961 389.185C357.961 400.441 348.824 409.578 337.568 409.578Z" stroke="black" stroke-width="5"/>
<defs>
<linearGradient id="paint0_linear_77_898" x1="155.623" y1="-26.1831" x2="155.72" y2="412.078" gradientUnits="userSpaceOnUse">
<stop stop-color="#D644D5"/>
<stop offset="1" stop-color="#8B1FC3"/>
</linearGradient>
<linearGradient id="paint1_linear_77_898" x1="155.623" y1="-26.1831" x2="155.72" y2="412.078" gradientUnits="userSpaceOnUse">
<stop stop-color="#D644D5"/>
<stop offset="1" stop-color="#8B1FC3"/>
</linearGradient>
</defs>
</svg>
